:version 1.10
:name ASF
:units
  mass 1
  length 1
  angle deg
:documentation
  ASF file generated by Kaydara
:root
  axis xyz
  order  tx ty tz rx ry rz
  position 0 0 0
  orientation 0 0 0
:bonedata
  begin
    id 1
    name RightUpLegDummy
    direction -0.718183 -0.695806 0.00816078
    length 4.904
    axis 0 0 0 xyz
  end
  begin
    id 2
    name RightUpLeg
    direction 3.53989e-006 -0.995788 0.0916897
    length 17.4976
    axis -3.49089 -0.000906621 0.000287158 xyz
    dof rx ry rz
  end
  begin
    id 3
    name RightLeg
    direction 0.00371093 -0.995096 -0.0988418
    length 16.5821
    axis 3.68512 0.0193738 -0.131023 xyz
    dof rx ry rz
  end
  begin
    id 4
    name RightFoot
    direction 0.000791514 -0.46099 0.887405
    length 3.77069
    axis 4.84075e-005 -0.120479 -0.188788 xyz
    dof rx ry rz
  end
  begin
    id 5
    name RightToes
    direction 0.00124746 -0.014064 0.9999
    length 3.85082
    axis 0.00048216 0.542163 -0.142577 xyz
    dof rx ry rz
  end
  begin
    id 6
    name SpineDummy
    direction 8.36599e-015 1 5.97571e-016
    length 4.6813
    axis 0 0 0 xyz
  end
  begin
    id 7
    name Spine
    direction -4.63632e-008 0.999988 0.00495137
    length 10.1015
    axis -0.00138897 0.000121419 3.25764e-006 xyz
    dof rx ry rz
  end
  begin
    id 8
    name Spine1
    direction 0 0 0
    length 0
    axis -0.00138896 0.000121452 2.39764e-006 xyz
    dof rx ry rz
  end
  begin
    id 9
    name HEadDummy
    direction -3.91456e-008 0.999999 0.00127422
    length 3.43865
    axis -0.00138896 0.000121452 2.39764e-006 xyz
  end
  begin
    id 10
    name HEad
    direction -0.0222688 0.980941 0.193023
    length 5.12695
    axis -0.00138895 0.000121452 2.39764e-006 xyz
    dof rx ry rz
  end
  begin
    id 11
    name LeftShoulder1Dummy
    direction 0.998891 -0.0402508 -0.0244456
    length 3.5433
    axis -0.00138896 0.000121452 2.39764e-006 xyz
  end
  begin
    id 12
    name LeftShoulder1
    direction 0.99951 -0.000327743 0.0313091
    length 4.05031
    axis -0.00138896 0.000121452 2.39764e-006 xyz
    dof rx ry rz
  end
  begin
    id 13
    name LeftArm
    direction 0.998561 -0.00100054 -0.0536182
    length 10.3537
    axis -23.1894 0.134784 0.96751 xyz
    dof rx ry rz
  end
  begin
    id 14
    name LeftForeArm
    direction 0.998903 0.00866434 0.046012
    length 8.70632
    axis -9.91835 -0.06569 -0.177792 xyz
    dof rx ry rz
  end
  begin
    id 15
    name LeftHand
    direction 0.992938 -0.0411636 0.11126
    length 5.32135
    axis -0.00960227 -0.00340091 0.185174 xyz
    dof rx ry rz
  end
  begin
    id 16
    name RightShoulderDummy
    direction -0.998891 -0.0402509 -0.0244414
    length 3.5433
    axis -0.00138896 0.000121452 2.39764e-006 xyz
  end
  begin
    id 17
    name RightShoulder
    direction -0.99951 -0.000327827 0.0313133
    length 4.05031
    axis 0.215806 0.000203644 -0.00680151 xyz
    dof rx ry rz
  end
  begin
    id 18
    name RightArm
    direction -0.998573 -0.000999583 -0.053403
    length 10.3947
    axis -23.2009 -0.134239 -0.9641 xyz
    dof rx ry rz
  end
  begin
    id 19
    name RightForeArm
    direction -0.998898 0.00868026 0.0461306
    length 8.68355
    axis -9.92322 0.0658061 0.178869 xyz
    dof rx ry rz
  end
  begin
    id 20
    name RightHand
    direction -0.992843 -0.0414603 0.112003
    length 5.28593
    axis -0.00960634 0.00330671 -0.185226 xyz
    dof rx ry rz
  end
  begin
    id 21
    name LeftUpLegDummy
    direction 0.718183 -0.695806 0.00816078
    length 4.904
    axis 0 0 0 xyz
  end
  begin
    id 22
    name LeftUpLeg
    direction -6.8115e-006 -0.995793 0.0916336
    length 17.4976
    axis -3.48766 0.00143441 -0.000523914 xyz
    dof rx ry rz
  end
  begin
    id 23
    name LeftLeg
    direction -0.00601357 -0.995091 -0.0987824
    length 16.5821
    axis 3.68177 -0.00654038 -0.00028478 xyz
    dof rx ry rz
  end
  begin
    id 24
    name LeftFoot
    direction -0.00417578 -0.460984 0.887399
    length 3.77069
    axis 1.87232e-006 4.66002e-005 -8.1837e-006 xyz
    dof rx ry rz
  end
  begin
    id 25
    name LeftToes
    direction 0.00818058 -0.00485161 0.999955
    length 3.85048
    axis 1.06246e-005 4.65855e-005 -8.18502e-006 xyz
    dof rx ry rz
  end
:hierarchy
  begin
    root RightUpLegDummy SpineDummy LeftUpLegDummy
    RightUpLegDummy RightUpLeg
    RightUpLeg RightLeg
    RightLeg RightFoot
    RightFoot RightToes
    SpineDummy Spine
    Spine Spine1
    Spine1 HEadDummy LeftShoulder1Dummy RightShoulderDummy
    HEadDummy HEad
    LeftShoulder1Dummy LeftShoulder1
    LeftShoulder1 LeftArm
    LeftArm LeftForeArm
    LeftForeArm LeftHand
    RightShoulderDummy RightShoulder
    RightShoulder RightArm
    RightArm RightForeArm
    RightForeArm RightHand
    LeftUpLegDummy LeftUpLeg
    LeftUpLeg LeftLeg
    LeftLeg LeftFoot
    LeftFoot LeftToes
  end

:SAMPLES-PER-SECOND 24
:FULLY-SPECIFIED
:DEGREES
1
root  -0.0653259 37.2862 55.7416 168.1 50.5926 173.399
RightUpLeg  1.94044 -10.0619 -24.9432
RightLeg  35.1319 8.29115 6.02773
RightFoot  -17.0762 0.834124 19.144
RightToes  -1.74623e-010 0 -2.59999e-017
Spine  6.42968 2.14218 -1.51816
Spine1  15.3154 1.88507 -1.5392
HEad  -8.18094 41.4914 -20.494
LeftShoulder1  1.46253 -2.1869 -19.1798
LeftArm  9.80371 6.34172 -37.7013
LeftForeArm  47.5746 -74.6736 -38.6766
LeftHand  0.0136878 6.79537 3.69533
RightShoulder  2.58784 4.80125 25.0955
RightArm  3.63281 -13.9475 36.3669
RightForeArm  118.027 75.8389 131.461
RightHand  -0.152429 -8.93322 3.24066
LeftUpLeg  -11.9379 10.4488 8.19396
LeftLeg  35.7381 -3.20975 -2.09372
LeftFoot  -10.0671 0.174322 -10.8898
LeftToes  -6.27559e-011 -2.10356e-011 8.24929e-012
2
root  -0.123221 36.1038 56.8026 168.571 51.1423 174.593
RightUpLeg  -1.48693 -10.664 -22.8407
RightLeg  42.0372 7.28428 6.71049
RightFoot  -24.7392 1.65307 15.4275
RightToes  -1.74623e-010 0 -2.59999e-017
Spine  7.08804 1.84758 -2.78613
Spine1  18.0405 0.952742 0.315652
HEad  -13.9355 42.2416 -24.8688
LeftShoulder1  1.51725 -2.17718 -20.2599
LeftArm  6.15816 1.33851 -36.6066
LeftForeArm  54.7153 -72.8278 -30.8417
LeftHand  -0.0226388 8.26082 0.85471
RightShoulder  2.70312 4.87239 26.2561
RightArm  1.64564 -2.30347 38.4276
RightForeArm  90.155 79.7895 92.3976
RightHand  0.100264 -11.5711 -2.95374
LeftUpLeg  -16.4944 11.5287 10.9227
LeftLeg  43.4825 -4.16466 -3.80258
LeftFoot  -12.0006 -0.0011535 -12.6122
LeftToes  -6.27559e-011 -2.10356e-011 8.24929e-012
3
root  0.0140588 36.3197 57.5838 169.431 51.5121 175.651
RightUpLeg  -2.08883 -11.5234 -20.826
RightLeg  41.7121 7.27792 6.61189
RightFoot  -24.0012 1.48253 14.796
RightToes  -1.74623e-010 0 -2.59999e-017
Spine  6.9538 1.45521 -2.48326
Spine1  19.4112 0.662768 0.16305
HEad  -16.4294 43.1227 -27.6842
LeftShoulder1  1.54328 -2.17155 -20.7784
LeftArm  2.2707 3.09715 -39.2563
LeftForeArm  68.0741 -73.8368 -30.713
LeftHand  0.0104663 8.57661 1.92532
RightShoulder  2.85724 5.09896 27.2351
RightArm  0.00908057 0.20729 43.5542
RightForeArm  86.6997 80.1038 77.1018
RightHand  0.737902 -13.6294 -11.1584
LeftUpLeg  -16.1172 11.3113 12.6804
LeftLeg  41.1418 -4.17537 -3.51744
LeftFoot  -10.0195 0.217007 -13.56
LeftToes  -6.27559e-011 -2.10356e-011 8.24929e-012
4
root  0.327924 37.7868 57.93 171.06 51.3349 176.616
RightUpLeg  1.38324 -14.2792 -19.8062
RightLeg  32.8892 10.475 6.94668
RightFoot  -17.3247 0.702158 15.4944
RightToes  -1.74623e-010 0 -2.59999e-017
Spine  5.72312 1.4213 -1.38183
Spine1  18.448 1.01819 -0.284037
HEad  -12.6407 43.9319 -25.2453
LeftShoulder1  1.54321 -2.12073 -21.0401
LeftArm  1.70254 9.39074 -43.8415
LeftForeArm  69.2475 -75.998 -37.71
LeftHand  0.130279 8.73568 6.06598
RightShoulder  2.90527 5.10668 27.7814
RightArm  -0.272576 -7.31833 46.2716
RightForeArm  112.098 79.4301 108.851
RightHand  1.02345 -12.3982 -17.2041
LeftUpLeg  -11.633 8.4085 12.8255
LeftLeg  29.4085 -0.964919 -0.304504
LeftFoot  -2.2154 1.14177 -13.9911
LeftToes  -6.27559e-011 -2.10356e-011 8.24929e-012
5
root  0.620875 39.4487 58.1276 172.678 52.9785 176.93
RightUpLeg  3.89528 -15.4365 -18.5889
RightLeg  22.4395 13.5216 5.84679
RightFoot  -6.92786 -0.659657 15.8833
RightToes  -1.74623e-010 0 -2.59999e-017
Spine  4.4582 2.18593 -0.561549
Spine1  16.1058 2.22008 -0.683734
HEad  -8.57377 44.5938 -21.1349
LeftShoulder1  1.61884 -2.19842 -22.0502
LeftArm  2.39116 17.3695 -45.4092
LeftForeArm  74.1566 -78.7262 -54.3887
LeftHand  0.0107584 6.49494 3.95486
RightShoulder  2.99101 5.12555 28.7275
RightArm  2.42242 -15.5802 44.1281
RightForeArm  125.689 75.439 134.433
RightHand  0.594498 -11.1467 -12.6923
LeftUpLeg  -7.1237 8.42998 12.6303
LeftLeg  17.8351 4.90805 1.93143
LeftFoot  9.20943 2.39084 -13.4771
LeftToes  -6.27559e-011 -2.10356e-011 8.24929e-012
6
root  0.758766 40.5881 58.4375 172.89 56.0037 175.689
RightUpLeg  3.00026 -13.3393 -17.5575
RightLeg  17.2071 13.1712 4.35723
RightFoot  0.498622 -1.89244 18.1432
RightToes  -1.74623e-010 0 -2.59999e-017
Spine  3.58433 3.09678 -0.85274
Spine1  14.3101 3.54546 -1.702
HEad  -8.82703 45.0666 -19.7532
LeftShoulder1  1.66399 -2.32692 -22.2111
LeftArm  3.14143 23.7853 -45.2872
LeftForeArm  90.0017 -80.2631 -76.5833
LeftHand  -0.00880763 4.2233 -1.55153
RightShoulder  3.03019 5.22309 28.7909
RightArm  6.2248 -19.9451 41.3004
RightForeArm  133.877 72.1666 144.487
RightHand  -0.069538 -9.38175 0.501966
LeftUpLeg  -4.69434 10.0551 12.0328
LeftLeg  13.35 8.9953 1.38785
LeftFoot  12.7076 2.47812 -11.9674
LeftToes  -6.27559e-011 -2.10356e-011 8.24929e-012
7
root  0.720536 41.0245 58.8461 172.342 57.2479 174.311
RightUpLeg  1.17524 -11.752 -17.2176
RightLeg  18.5936 10.6047 3.74021
RightFoot  1.44674 -2.10939 18.7522
RightToes  -1.74623e-010 0 -2.59999e-017
Spine  2.90234 3.0313 -1.27303
Spine1  14.3773 3.81286 -2.86031
HEad  -11.8375 45.092 -20.7343
LeftShoulder1  1.59006 -2.36053 -20.6955
LeftArm  5.17985 24.9414 -45.4359
LeftForeArm  99.6602 -80.4391 -88.1422
LeftHand  0.0212408 3.2046 -2.19841
RightShoulder  2.90206 5.16223 27.5165
RightArm  8.28138 -20.6003 40.3288
RightForeArm  140.25 69.8041 149.649
RightHand  -0.176273 -6.66729 10.7804
LeftUpLeg  -4.52696 11.7963 10.1716
LeftLeg  16.3344 4.43399 0.819915
LeftFoot  10.189 2.15665 -11.6449
LeftToes  -6.27559e-011 -2.10356e-011 8.24929e-012
